# xmcd
#
# Track frame offsets:
#	150
#	15749
#	29602
#	46542
#	59128
#	76505
#	92937
#	108217
#	122088
#	138492
#	155668
#	173864
#
# Disc length: 2472 seconds
#
# Revision: 0
# Processed by: cddbd v1.5.2PL0 Copyright (c) Steve Scherf et al.
# Submitted via: audiograbber 1.83.01
#
DISCID=9809a60c
DTITLE=Jasmin Bessette and Mélanie Denis - Seulement Pour Toi
DYEAR=1900
DGENRE=Country
TTITLE0=Seulement Pour Toi (M.St-Pierre/R.St-Pierre)
TTITLE1=Avant Que La Prochaine Larme Tombe (Fred Bessette)
TTITLE2=Ses Rires Et Ses Pleures (Normand St-Pierre/J-L Houle)
TTITLE3=Rebranche Toi Sur L'amour (Normand St-Pierre/J-L Houle)
TTITLE4=Merci Maman (M. St-Pierre)
TTITLE5=30 Sous Dans Le Juke Box (M.St-Pierre/R.St-Pierre)
TTITLE6=Maman Jouait Du Piano (Fred Bessette)
TTITLE7=Je Ne Pourrai Jamais T'oublier (Mariette Labbé)
TTITLE8=Tout Comme Mon Père (M. St-Pierre/J-L Houle)
TTITLE9=Maison De Campagne (Normand St-Pierre/J-L Houle)
TTITLE10=Vieille Dame (Isabelle Élément)
TTITLE11=Espoir De Réussir (Fred Bessette)
EXTD=
EXTT0=
EXTT1=
EXTT2=
EXTT3=
EXTT4=
EXTT5=
EXTT6=
EXTT7=
EXTT8=
EXTT9=
EXTT10=
EXTT11=
PLAYORDER=
